<mxfile host="7dabff21-c819-4bfb-aadd-ed732fb83eb9" modified="2020-07-28T11:59:44.532Z" agent="5.0 (X11; Linux x86_64) AppleWebKit/537.36 (KHTML, like Gecko) Code/1.47.3 Chrome/78.0.3904.130 Electron/7.3.2 Safari/537.36" etag="XZsKiLXtw_AKKIWYahEI" version="13.1.3">
    <diagram id="rTpnEa-E7jjdDennPdET" name="Page-1">
        <mxGraphModel dx="1183" dy="525" grid="1" gridSize="10" guides="1" tooltips="1" connect="1" arrows="1" fold="1" page="0" pageScale="1" pageWidth="850" pageHeight="1100" background="none" math="0" shadow="0">
            <root>
                <mxCell id="0"/>
                <mxCell id="1" parent="0"/>
                <mxCell id="3" value="" style="shape=ext;double=1;rounded=0;whiteSpace=wrap;html=1;" parent="1" vertex="1">
                    <mxGeometry x="40" y="220" width="200" height="80" as="geometry"/>
                </mxCell>
                <mxCell id="tvJjY-yOOGK8GcRBC_pJ-7" style="rounded=0;orthogonalLoop=1;jettySize=auto;html=1;exitX=0.5;exitY=0;exitDx=0;exitDy=0;endArrow=none;endFill=0;" parent="1" source="tvJjY-yOOGK8GcRBC_pJ-2" edge="1">
                    <mxGeometry relative="1" as="geometry">
                        <mxPoint x="520" y="283" as="targetPoint"/>
                    </mxGeometry>
                </mxCell>
                <mxCell id="tvJjY-yOOGK8GcRBC_pJ-2" value="master&lt;br&gt;10.0.0.10" style="rounded=0;whiteSpace=wrap;html=1;fillColor=#647687;strokeColor=#314354;fontColor=#ffffff;" parent="1" vertex="1">
                    <mxGeometry x="240" y="400" width="160" height="80" as="geometry"/>
                </mxCell>
                <mxCell id="tvJjY-yOOGK8GcRBC_pJ-8" style="rounded=0;orthogonalLoop=1;jettySize=auto;html=1;exitX=0.5;exitY=0;exitDx=0;exitDy=0;entryX=0.5;entryY=1;entryDx=0;entryDy=0;endArrow=none;endFill=0;" parent="1" source="tvJjY-yOOGK8GcRBC_pJ-3" target="tvJjY-yOOGK8GcRBC_pJ-5" edge="1">
                    <mxGeometry relative="1" as="geometry"/>
                </mxCell>
                <mxCell id="tvJjY-yOOGK8GcRBC_pJ-3" value="node01&lt;br&gt;10.0.0.20" style="rounded=0;whiteSpace=wrap;html=1;fillColor=#647687;strokeColor=#314354;fontColor=#ffffff;" parent="1" vertex="1">
                    <mxGeometry x="440" y="400" width="160" height="80" as="geometry"/>
                </mxCell>
                <mxCell id="tvJjY-yOOGK8GcRBC_pJ-9" style="rounded=0;orthogonalLoop=1;jettySize=auto;html=1;exitX=0.5;exitY=0;exitDx=0;exitDy=0;endArrow=none;endFill=0;entryX=0.5;entryY=1;entryDx=0;entryDy=0;" parent="1" source="tvJjY-yOOGK8GcRBC_pJ-4" edge="1" target="tvJjY-yOOGK8GcRBC_pJ-5">
                    <mxGeometry relative="1" as="geometry">
                        <mxPoint x="580" y="280" as="targetPoint"/>
                    </mxGeometry>
                </mxCell>
                <mxCell id="tvJjY-yOOGK8GcRBC_pJ-4" value="node02&lt;br&gt;10.0.0.21" style="rounded=0;whiteSpace=wrap;html=1;fillColor=#647687;strokeColor=#314354;fontColor=#ffffff;" parent="1" vertex="1">
                    <mxGeometry x="640" y="400" width="160" height="80" as="geometry"/>
                </mxCell>
                <mxCell id="6" style="rounded=0;orthogonalLoop=1;jettySize=auto;html=1;exitX=0.5;exitY=1;exitDx=0;exitDy=0;entryX=0.5;entryY=0;entryDx=0;entryDy=0;" parent="1" source="tvJjY-yOOGK8GcRBC_pJ-5" target="5" edge="1">
                    <mxGeometry relative="1" as="geometry"/>
                </mxCell>
                <mxCell id="11" style="rounded=0;orthogonalLoop=1;jettySize=auto;html=1;exitX=0.5;exitY=0;exitDx=0;exitDy=0;entryX=0;entryY=1;entryDx=0;entryDy=0;endArrow=none;endFill=0;" parent="1" source="tvJjY-yOOGK8GcRBC_pJ-5" target="10" edge="1">
                    <mxGeometry relative="1" as="geometry"/>
                </mxCell>
                <mxCell id="19" style="rounded=0;orthogonalLoop=1;jettySize=auto;html=1;exitX=0.5;exitY=1;exitDx=0;exitDy=0;endArrow=none;endFill=0;" parent="1" source="tvJjY-yOOGK8GcRBC_pJ-5" target="18" edge="1">
                    <mxGeometry relative="1" as="geometry"/>
                </mxCell>
                <mxCell id="tvJjY-yOOGK8GcRBC_pJ-5" value="10.0.0.0/24" style="rounded=1;whiteSpace=wrap;html=1;arcSize=37;" parent="1" vertex="1">
                    <mxGeometry x="400" y="240" width="240" height="40" as="geometry"/>
                </mxCell>
                <mxCell id="tvJjY-yOOGK8GcRBC_pJ-10" style="rounded=0;orthogonalLoop=1;jettySize=auto;html=1;exitX=1;exitY=0.5;exitDx=0;exitDy=0;entryX=0;entryY=0.5;entryDx=0;entryDy=0;endArrow=none;endFill=0;" parent="1" source="tvJjY-yOOGK8GcRBC_pJ-6" target="tvJjY-yOOGK8GcRBC_pJ-5" edge="1">
                    <mxGeometry relative="1" as="geometry"/>
                </mxCell>
                <mxCell id="tvJjY-yOOGK8GcRBC_pJ-6" value="vboxnet0&lt;br&gt;10.0.0.1" style="rounded=0;whiteSpace=wrap;html=1;" parent="1" vertex="1">
                    <mxGeometry x="80" y="240" width="120" height="40" as="geometry"/>
                </mxCell>
                <mxCell id="2" style="rounded=0;orthogonalLoop=1;jettySize=auto;html=1;exitX=0.5;exitY=1;exitDx=0;exitDy=0;entryX=0.5;entryY=0;entryDx=0;entryDy=0;startArrow=none;startFill=0;endArrow=none;endFill=0;" parent="1" source="tvJjY-yOOGK8GcRBC_pJ-11" target="tvJjY-yOOGK8GcRBC_pJ-5" edge="1">
                    <mxGeometry relative="1" as="geometry"/>
                </mxCell>
                <mxCell id="tvJjY-yOOGK8GcRBC_pJ-11" value="metal-lb pool:&lt;br&gt;10.0.0.100-10.0.0.200" style="ellipse;whiteSpace=wrap;html=1;dashed=1;fillColor=#6d8764;strokeColor=#3A5431;fontColor=#ffffff;" parent="1" vertex="1">
                    <mxGeometry x="440" y="40" width="160" height="80" as="geometry"/>
                </mxCell>
                <mxCell id="4" value="Host" style="text;html=1;align=center;verticalAlign=middle;resizable=0;points=[];autosize=1;" parent="1" vertex="1">
                    <mxGeometry x="40" y="200" width="40" height="20" as="geometry"/>
                </mxCell>
                <mxCell id="5" value="nfs&lt;br&gt;10.0.0.5" style="rounded=0;whiteSpace=wrap;html=1;fillColor=#647687;strokeColor=#314354;fontColor=#ffffff;" parent="1" vertex="1">
                    <mxGeometry x="40" y="400" width="160" height="80" as="geometry"/>
                </mxCell>
                <mxCell id="10" value="nginx-ingress&lt;br&gt;10.0.0.100" style="ellipse;whiteSpace=wrap;html=1;dashed=1;fillColor=#6d8764;strokeColor=#3A5431;fontColor=#ffffff;" parent="1" vertex="1">
                    <mxGeometry x="620" y="110" width="160" height="80" as="geometry"/>
                </mxCell>
                <mxCell id="12" value="" style="shape=curlyBracket;whiteSpace=wrap;html=1;rounded=1;rotation=-90;size=0.5285714285714286;" parent="1" vertex="1">
                    <mxGeometry x="499.12" y="28.88" width="35" height="955.25" as="geometry"/>
                </mxCell>
                <mxCell id="16" value="VMs" style="text;html=1;align=center;verticalAlign=middle;resizable=0;points=[];autosize=1;" parent="1" vertex="1">
                    <mxGeometry x="496.62" y="530" width="40" height="20" as="geometry"/>
                </mxCell>
                <mxCell id="18" value="node03&lt;br&gt;10.0.0.22" style="rounded=0;whiteSpace=wrap;html=1;fillColor=#647687;strokeColor=#314354;fontColor=#ffffff;" parent="1" vertex="1">
                    <mxGeometry x="840" y="400" width="160" height="80" as="geometry"/>
                </mxCell>
            </root>
        </mxGraphModel>
    </diagram>
</mxfile>
